<svg width="20.5" height="20.3" viewBox="0 0 205 203" fill="none" xmlns="http://www.w3.org/2000/svg">
<path d="M186.753 34.2491C170.328 15.9973 147.24 3.65876 120.857 1.27329C65.3622 -3.74439 16.3073 37.1753 11.2896 92.67C9.29963 114.678 14.5347 135.674 25.0386 153.311L0 194.35L41.4422 176.439L42.6124 175.22C58.4782 190.176 79.2865 200.122 102.686 202.237C134.927 205.152 164.994 192.562 185.515 170.617L160.908 170.979C144.987 182.291 125.104 188.195 104.127 186.299C57.4353 182.077 23.0063 140.803 27.2281 94.1111C31.4499 47.419 72.7237 12.99 119.416 17.2118C136.159 18.7257 151.325 25.0039 163.698 34.5878L186.753 34.2491Z" fill="white"/>
<path d="M109.552 140.672C102.256 140.672 95.92 139.04 90.544 135.776C85.232 132.512 81.168 128.16 78.352 122.72C75.536 117.216 74.128 111.168 74.128 104.576C74.128 97.6 75.632 91.36 78.64 85.856C81.712 80.352 86 76.064 91.504 72.992C97.008 69.856 103.248 68.288 110.224 68.288C113.36 68.288 116.272 68.64 118.96 69.344C121.712 69.984 123.984 70.752 125.776 71.648C127.568 72.48 128.752 73.184 129.328 73.76L124.624 83.36C120.72 79.904 115.632 78.176 109.36 78.176C104.944 78.176 100.944 79.264 97.36 81.44C93.776 83.616 90.96 86.72 88.912 90.752C86.864 94.784 85.84 99.456 85.84 104.768C85.84 109.632 86.736 114.048 88.528 118.016C90.384 121.984 93.072 125.12 96.592 127.424C100.112 129.728 104.304 130.88 109.168 130.88C114.8 130.88 120.24 129.28 125.488 126.08L128.656 135.2C127.248 136.48 124.656 137.728 120.88 138.944C117.168 140.096 113.392 140.672 109.552 140.672Z" fill="white"/>
<path d="M169.373 140.96C162.973 140.96 157.053 139.488 151.613 136.544C146.237 133.536 141.949 129.28 138.749 123.776C135.549 118.272 133.949 111.872 133.949 104.576C133.949 97.216 135.549 90.816 138.749 85.376C141.949 79.872 146.237 75.648 151.613 72.704C157.053 69.76 162.973 68.288 169.373 68.288C175.773 68.288 181.661 69.76 187.037 72.704C192.477 75.648 196.798 79.872 199.997 85.376C203.197 90.816 204.798 97.216 204.798 104.576C204.798 111.872 203.197 118.272 199.997 123.776C196.798 129.28 192.477 133.536 187.037 136.544C181.661 139.488 175.773 140.96 169.373 140.96ZM169.373 131.264C173.789 131.264 177.821 130.24 181.469 128.192C185.117 126.08 187.997 123.04 190.109 119.072C192.285 115.04 193.373 110.24 193.373 104.672C193.373 99.04 192.285 94.24 190.109 90.272C187.997 86.24 185.117 83.2 181.469 81.152C177.885 79.104 173.853 78.08 169.373 78.08C164.893 78.08 160.829 79.104 157.181 81.152C153.533 83.2 150.653 86.24 148.541 90.272C146.429 94.24 145.373 99.04 145.373 104.672C145.373 110.24 146.461 115.04 148.637 119.072C150.813 123.04 153.725 126.08 157.373 128.192C161.085 130.24 165.085 131.264 169.373 131.264Z" fill="white"/>
</svg>
