<svg width="82" height="81" viewBox="0 0 300 300" fill="none" xmlns="http://www.w3.org/2000/svg">
    <path
        d="M186.753 34.25C170.328 15.996 147.24 3.658 120.857 1.272 65.362-3.744 16.307 37.175 11.29 92.67c-1.99 22.008 3.245 43.004 13.749 60.641L0 194.35l41.442-17.911 1.17-1.219c15.866 14.956 36.675 24.902 60.074 27.017 32.241 2.915 62.308-9.675 82.829-31.62l-24.607.362c-15.921 11.312-35.804 17.216-56.781 15.32-46.692-4.222-81.12-45.496-76.899-92.188 4.222-46.692 45.496-81.121 92.188-76.9 16.743 1.515 31.909 7.793 44.282 17.377l23.055-.339z"
        fill="#000" />
    <path
        d="M109.552 140.672c-7.296 0-13.632-1.632-19.008-4.896-5.312-3.264-9.376-7.616-12.192-13.056-2.816-5.504-4.224-11.552-4.224-18.144 0-6.976 1.504-13.216 4.512-18.72 3.072-5.504 7.36-9.792 12.864-12.864 5.504-3.136 11.744-4.704 18.72-4.704 3.136 0 6.048.352 8.736 1.056 2.752.64 5.024 1.408 6.816 2.304 1.792.832 2.976 1.536 3.552 2.112l-4.704 9.6c-3.904-3.456-8.992-5.184-15.264-5.184-4.416 0-8.416 1.088-12 3.264-3.584 2.176-6.4 5.28-8.448 9.312-2.048 4.032-3.072 8.704-3.072 14.016 0 4.864.896 9.28 2.688 13.248 1.856 3.968 4.544 7.104 8.064 9.408 3.52 2.304 7.712 3.456 12.576 3.456 5.632 0 11.072-1.6 16.32-4.8l3.168 9.12c-1.408 1.28-4 2.528-7.776 3.744a38.01 38.01 0 01-11.328 1.728zM169.373 140.96c-6.4 0-12.32-1.472-17.76-4.416-5.376-3.008-9.664-7.264-12.864-12.768-3.2-5.504-4.8-11.904-4.8-19.2 0-7.36 1.6-13.76 4.8-19.2 3.2-5.504 7.488-9.728 12.864-12.672 5.44-2.944 11.36-4.416 17.76-4.416 6.4 0 12.288 1.472 17.664 4.416 5.44 2.944 9.761 7.168 12.96 12.672 3.2 5.44 4.801 11.84 4.801 19.2 0 7.296-1.601 13.696-4.801 19.2-3.199 5.504-7.52 9.76-12.96 12.768-5.376 2.944-11.264 4.416-17.664 4.416zm0-9.696c4.416 0 8.448-1.024 12.096-3.072 3.648-2.112 6.528-5.152 8.64-9.12 2.176-4.032 3.264-8.832 3.264-14.4 0-5.632-1.088-10.432-3.264-14.4-2.112-4.032-4.992-7.072-8.64-9.12-3.584-2.048-7.616-3.072-12.096-3.072s-8.544 1.024-12.192 3.072c-3.648 2.048-6.528 5.088-8.64 9.12-2.112 3.968-3.168 8.768-3.168 14.4 0 5.568 1.088 10.368 3.264 14.4 2.176 3.968 5.088 7.008 8.736 9.12 3.712 2.048 7.712 3.072 12 3.072z"
        fill="#000" />
</svg>